Patient4_TMGait_0pt7_02_left_44_EMG.mot
version=1
nRows=37
nColumns=33
inDegrees=no
endheader
time	1LAddLong	2LGlutMax	3LGlutMed	4LIliopsoas	5LSemiMemb	6LBicFemLong	7LRecFem	8LVastMed	9LVastLat	10LGasMed	11LTibAnt	12lTibPost	13LPeroneusLong	14LSol	15LExtDigLong	16LFlexDigLong	17RAddLong	18RGlutMax	19RGlutMed	20RIliopsoas	21RSemiMemb	22RBicFemLong	23RRecFem	24RVastMed	25RVastLat	26RGasMed	27RTibAnt	28RTibPost	29RPeroneusLong	30RSol	31RExtDigLong	32RFlexDigLong
51.175	-0.002136	-0.35965	-0.045319	-0.00885	0.013123	0.014191	0.15091	0.015564	-0.10208	-0.21866	0.007935	-0.038452	0.10773	0.28717	-0.003357	0.18677	-0.18036	-0.18784	0.75638	0.10925	-0.58533	0.052032	0.10941	1.0524	-0.47607	0.001068	-0.057068	-0.010376	0.53604	0.073547	-0.001221	-0.006256
51.176	-0.006561	-0.34866	-0.037384	0.021057	0.013123	0.00885	0.10819	0.00824	-0.11643	-0.11993	0.002441	-0.10147	0.041809	0.38071	0.021973	-0.014801	-0.11978	0.005341	0.69382	0.010986	-0.16419	0.26688	0.13367	0.57098	0.40741	0.002289	0.00946	0.000458	0.85815	0.049286	0.001526	-0.01297
51.177	0.006409	-0.33752	-0.042267	0.007782	0.010529	0.009308	0.076447	0.007629	-0.10407	0.25024	0.000153	-0.14191	-0.012665	0.29373	0.021973	-0.032654	-0.085449	0.067596	0.62653	-0.06424	0.14755	0.081329	-0.012207	0.20828	0.80063	-0.003052	0.097504	-0.009766	0.62134	0.042419	-0.000763	-0.017548
51.178	0.015411	-0.27634	-0.058746	0.01236	0.018158	0.010834	0.047913	0.010223	-0.103	0.64316	0.005188	-0.15991	0.015717	-0.22125	-0.004883	-0.058136	-0.050354	0.058594	0.63904	-0.11719	0.032806	-0.14297	-0.20706	0.072784	0.6311	-0.004578	0.080719	0.003204	0.78064	0.034637	0.00061	-0.004883
51.179	0.008087	-0.29083	-0.06546	0.004425	0.006409	0.003967	0.027771	0.00946	-0.10635	0.44311	-0.002441	0.15137	0.051727	-0.36682	0.007172	-0.077515	-0.021057	-0.049896	0.62408	-0.13489	-0.27252	-0.31876	-0.055542	-0.015717	0.01709	0.005188	0.022583	-0.004425	0.21591	-0.037384	0.002747	-0.00473
51.18	0.005646	-0.29434	-0.073242	-0.022278	0.00061	0.016479	0.023346	0.007782	-0.10895	-0.00473	-0.00061	-0.25101	0.041351	-0.41138	0.005798	-0.080109	-0.061646	-0.076294	0.53436	-0.056	-0.3624	0.026855	0.15167	-0.10483	-0.42084	0.00946	0.007935	-0.002136	-1.2671	-0.049438	0.003052	-0.016632
51.181	0.00824	-0.29923	-0.084534	-0.001221	-0.001526	0.00412	-0.03479	0.006409	-0.1059	-0.13321	0.005646	0.001373	0.024414	-0.29129	0.003662	-0.041351	-0.080109	-0.215	0.22568	0.076599	-0.29236	0.073853	0.44937	-0.27969	-0.44556	0.006104	0.00061	-0.004883	-0.53741	-0.000916	0.002747	-0.013123
51.182	0.005951	-0.26535	-0.15854	0.027924	0.010071	-0.017395	-0.050812	0.005493	-0.098572	-0.19226	-0.009613	-0.037079	0.00412	-0.26947	-0.005493	0.01709	0.097656	-0.16312	0.097809	0.22858	-0.27802	0.19638	0.84854	-0.3685	-0.54123	-0.005035	0.019379	-0.007477	0.11917	0.070953	0.004425	-0.00946
51.183	0.011902	-0.27512	-0.20859	0.02655	0.025024	-0.010223	-0.10056	0.00412	-0.097046	-0.26413	0.001068	-0.04303	0.015564	-0.19348	-0.004425	-0.007477	0.23285	0.046997	0.21118	0.14755	-0.35126	0.021667	1.2505	-0.84305	-0.71976	-0.003967	0.027771	-0.001678	0.087891	0.063782	-0.00061	-0.012054
51.184	-0.001526	-0.24078	-0.21805	0.007019	0.028992	0.001984	-0.10864	0.000763	-0.10178	-0.18967	0.002289	-0.042725	0.008392	0.10117	0.005188	-0.023804	0.26779	0.009003	0.78415	-0.028687	-0.42084	-0.28351	1.0597	-0.80994	-0.19119	0.000763	-0.050812	-0.004272	-0.091553	0.03418	-0.001831	-0.001831
51.185	0.01297	-0.1828	-0.23529	-0.020142	0.027771	0.029449	-0.1294	0.004272	-0.10254	-0.17395	0.007935	-0.045471	-0.035858	0.12726	0.018158	-0.031586	0.15381	-0.029602	1.7186	-0.097046	-0.47836	-0.31937	0.37582	-0.58731	0.40573	0.000916	-0.063782	-0.001373	-0.17044	0.005951	0.000305	-0.00885
51.186	0.004425	-0.23407	-0.26916	-0.02121	0.029755	0.001984	-0.15457	0.018921	-0.10147	-0.18646	0.014496	-0.04776	-0.089264	-0.003357	0.013123	-0.040588	-0.03891	-0.16007	1.5323	0.022888	-0.16983	0.026855	-0.23682	-0.27268	0.58868	0.00351	-0.036011	-0.000916	0.13763	-0.024567	0.00351	-0.003662
51.187	0.005646	-0.22293	-0.28732	-0.015717	0.039215	0.005646	-0.17349	-0.00061	-0.098267	-0.14481	0.002441	-0.04715	-0.086517	-0.1239	0.013275	-0.062256	-0.20554	-0.084991	1.2196	0.059662	-0.15747	0.37445	-0.63355	0.22629	0.17761	0.001373	-0.029449	-0.000458	0.34668	-0.013123	-0.001984	-0.011139
51.188	0.00946	-0.21744	-0.27832	0.009308	0.026703	0.042114	-0.17609	0.006104	-0.11459	0.03067	0.008087	-0.043335	-0.090027	0.10498	0.010681	-0.10132	-0.20416	0.09964	0.85342	0.10956	-0.24796	0.31403	-0.89249	0.27603	-0.18356	0.002899	-0.003967	-0.000305	-0.54794	0.022888	-0.00351	-0.011749
51.189	0.001373	-0.15549	-0.24307	0.015411	0.0177	0.006409	-0.18723	0.005341	-0.12085	0.2417	0.010834	-0.034637	-0.03891	0.28412	0.024414	-0.040894	-0.13901	0.084229	1.1414	0.025635	-0.16312	0.10757	-1.0077	0.10635	-0.63278	0.004425	-0.009155	0.002289	-0.58655	-0.010071	0.003967	-0.009613
51.19	0.005341	-0.20569	-0.30609	0.014648	0.007629	-0.015411	-0.21103	-0.00061	-0.1004	0.29495	-0.00412	-0.05722	0.072479	0.23254	0.024261	0.069733	-0.034943	-0.13794	1.2511	-0.056915	-0.13336	-0.025482	-0.97504	-0.2179	-0.9169	0.000916	0.008698	-0.001678	0.26276	-0.018616	0.001678	-0.001373
51.191	0.011292	-0.24155	-0.32806	0.016174	0.012207	0.019531	-0.22446	0.004425	-0.12817	0.26077	0.015411	-0.11093	0.089874	0.28824	0.019989	0.087738	0.1181	-0.35294	1.4691	-0.046082	-0.18601	-0.036774	-0.57205	0.1828	-0.94681	-0.000153	-0.004272	-0.000153	0.69565	-0.032959	0.002899	-0.006409
51.192	0.016632	-0.27115	-0.31418	0.017395	0.011597	-0.01709	-0.21774	0.000153	-0.12695	0.24155	0.006714	0.00412	0.10284	0.42313	0.022583	0.031433	0.17639	-0.5574	0.7814	0.049744	-0.065308	0.016785	-0.19577	0.62317	-0.63568	0.001373	-0.10895	0.00351	0.61447	-0.061188	0.000305	-0.004883
51.193	0.007935	-0.23193	-0.33722	0.003815	0.019379	-0.06073	-0.23682	0.010681	-0.14221	0.016327	0.006561	0.019989	0.031281	0.61462	0.031586	-0.40588	0.15732	-0.54489	0.91538	0.072327	-0.24811	-0.13184	-0.049591	0.72586	-0.058289	-0.001984	-0.12177	0.001678	0.42725	-0.046692	-0.006561	-0.00473
51.194	0.008087	-0.17136	-0.34561	0.003967	0.039673	-0.07309	-0.24292	0.012207	-0.13931	0.021057	0.014954	0.058136	-0.15198	0.70389	0.037689	-0.24262	0.035706	-0.49255	1.1586	0.035553	-0.62622	0.021362	0.30151	0.36026	0.1265	0.004425	0.018921	0.001221	0.17517	-0.041199	-0.004883	-0.010223
51.195	0.005646	-0.12131	-0.38086	0.019379	0.037231	-0.077209	-0.29129	0.011292	-0.12787	0.14694	0.009155	-0.026398	-0.28244	0.74921	0.009003	0.46982	-0.13245	-0.51422	0.99396	-0.057678	-0.79819	0.34378	0.5014	-0.39169	0.12177	0	0.17624	-0.000305	0.12222	-0.034943	0.001373	-0.01358
51.196	-0.001831	-0.088196	-0.3894	0.001526	0.028839	-0.033722	-0.2771	0.001068	-0.12283	0.58487	0.016479	0.12787	-0.090485	0.74127	0.019073	-0.41397	-0.22461	-0.3775	1.0838	-0.058289	-0.66422	0.60837	0.37628	-0.71594	0.27969	0.00473	0.10819	0.001373	0.38986	-0.055389	-0.001678	-0.014801
51.197	-0.001526	-0.0383	-0.42831	0.000305	0.021667	-0.023651	-0.28305	0.004883	-0.12955	0.19424	-0.002289	-0.3009	-0.040894	0.73929	0.053711	-0.46906	-0.24338	-0.29541	1.0234	-0.028992	-0.084839	0.54077	0.4335	-1.102	-0.003815	0.005341	-0.011139	0.002747	1.1163	-0.067139	0.001526	-0.007629
51.198	-0.001984	-0.0354	-0.49286	0.029602	0.018158	-0.031128	-0.3125	0.009918	-0.10864	-0.40909	-0.006714	-0.09201	-0.16159	-0.016937	0.015717	0.040588	-0.17029	-0.35309	0.90103	-0.030518	-0.016022	0.44525	0.58823	-1.0356	-0.39368	0.001526	0.060425	0.000153	0.21912	-0.055389	-0.001831	-0.000763
51.199	0.008087	-0.028839	-0.55588	0.054474	0.009613	-0.0383	-0.34622	0.067902	-0.098724	-0.31876	-0.000153	0.047607	-0.20233	-0.24521	-0.033722	0.67886	-0.084686	-0.34637	0.5101	-0.059204	-0.024872	0.57953	0.35461	-0.76889	-0.18265	-0.00061	0.052032	-0.001678	-0.097351	-0.052185	0.002747	-0.00061
51.2	0.003815	-0.057526	-0.55344	0.046387	-0.000305	-0.023499	-0.34622	0.034485	-0.099945	-0.1947	-0.005646	0.17502	-0.13809	-0.39917	-0.05127	0.4332	-0.010529	-0.39841	0.40054	-0.041351	0.12116	0.60455	0.11124	-0.16861	-0.24826	-0.004578	-0.019684	0.002441	-0.80795	-0.05249	0.001373	0.005341
51.201	0.008545	-0.10254	-0.63019	0.007172	-0.014191	0.008087	-0.34973	0.01236	-0.094299	-0.21698	-0.009613	-0.066833	-0.017548	-1.0181	-0.072021	-0.52353	0.019379	-0.53528	0.51392	-0.066833	0.57281	0.45334	0.091095	0.23789	-0.17746	-0.003204	-0.001526	-0.001526	-0.73624	-0.002136	0.003052	0.003357
51.202	0.005646	-0.14664	-0.64133	-0.04425	0.012817	-0.030975	-0.34119	0.00412	-0.085144	-0.25833	-0.000153	-0.015259	0.15762	-0.5957	-0.013123	-0.12787	0.037231	-0.51285	0.35095	-0.057068	0.62241	0.32959	-0.15015	0.12619	0.046997	-0.011444	0.043335	0.000916	-0.37308	0.070801	0.005798	-0.001068
51.203	0.005341	-0.17349	-0.64148	-0.061188	0.037079	-0.075989	-0.35614	0.005798	-0.095215	-0.26642	-0.007629	-0.029755	0.26062	-0.5777	0.026855	0.27557	0.027924	-0.58243	0.16647	-0.10574	0.61859	0.38238	-0.64377	-0.12619	0.31143	-0.012665	0.086823	-0.002136	-0.32303	0.065308	0.000153	0.003815
51.204	0.003967	-0.18234	-0.67246	-0.05188	0.03418	-0.047302	-0.36087	0.008698	-0.10376	-0.20157	-0.002136	-0.004425	0.2385	-0.51254	0.000153	-0.37079	0.052948	-0.45487	0.039825	-0.23712	0.44907	0.31158	-0.70892	-0.37155	0.43594	0.00061	0.10498	0.001831	-0.051117	-0.027313	0.001831	0.000763
51.205	-0.004425	-0.1712	-0.68039	-0.046997	0.031891	-0.013123	-0.34805	0.007782	-0.097504	-0.17059	-0.005646	0.065002	0.14297	-0.17914	-0.018158	0.32562	0.076141	-0.31891	0.15167	-0.24262	0.21652	0.2478	-0.49377	0.065918	0.30533	0.000153	-0.041656	0.001678	-0.036469	-0.019684	-0.002441	-0.001831
51.206	0.001068	-0.20309	-0.69595	-0.014954	0.019989	0.028229	-0.35141	0.007324	-0.10468	-0.17517	-0.016327	0.001526	0.13275	0.079651	0.007629	0.059662	0.05661	-0.2272	0.34073	-0.059204	-0.052643	0.23712	-0.74554	0.22507	0.15091	-0.006714	-0.13031	0.001831	0.015717	-0.061188	0.001831	0
51.207	-0.004272	-0.21316	-0.69931	0.010376	0.007477	-0.002747	-0.37796	0.001221	-0.078735	-0.058289	-0.010223	-0.27496	0.094604	-0.053253	0.022888	-0.29144	0.079193	-0.061798	0.44205	0.21606	-0.21164	0.20767	-0.74631	0.28122	0.15686	0.004578	-0.37033	-0.000305	-0.25497	-0.076141	-0.009155	-0.001373
51.208	0.016479	-0.26398	-0.70404	0.022125	-0.007782	-0.007629	-0.40268	-0.002899	-0.073547	0.10712	0.010071	-0.24277	0.057526	0.027161	0.028839	0.17731	0.10407	0.01236	0.26657	0.39307	0.069122	0.23086	-0.74585	0.3125	-0.081482	-0.004425	-0.52246	-0.001373	-0.084381	-0.021515	0.000916	-0.004272
51.209	0.027313	-0.27298	-0.70953	0.021973	-0.003052	-0.008698	-0.38803	0.000763	-0.060272	0.15823	-0.001526	0.58166	0.028381	0.029144	0.024414	0.050507	0.030518	0.10208	0.40131	0.43106	0.37231	0.28717	-0.49683	0.2858	-0.29205	-0.001526	-0.14862	-0.00061	0.14893	-0.088043	-0.003357	-0.002899
51.21	-0.003815	-0.23117	-0.70252	0.018005	0.005646	-0.043793	-0.4097	-0.003662	-0.066376	0.18036	0.00824	0.12405	0.001678	0.066071	0.030365	0.018158	-0.064087	0.19562	0.61584	0.29419	0.84351	0.25116	-0.29663	0.42541	-0.29282	0.005341	0.24567	0.002747	0.40024	-0.17914	-0.001678	-0.005493
51.211	0.012207	-0.24887	-0.67017	0.029144	0.003052	-0.014038	-0.37552	-0.00061	-0.069275	0.1532	-0.028839	-0.10727	0.062103	0.080872	0.029755	-0.034027	-0.017548	0.15762	0.4451	0.091705	0.87982	0.19608	-0.052185	0.21683	-0.16235	0.006104	0.4097	0.000305	0.62027	-0.16602	-0.002289	-0.002136
